<?xml version="1.0" encoding="utf-8"?>
<!-- Generator: Adobe Illustrator 21.1.0, SVG Export Plug-In . SVG Version: 6.00 Build 0)  -->
<svg version="1.0" id="Warstwa_1" xmlns="http://www.w3.org/2000/svg" xmlns:xlink="http://www.w3.org/1999/xlink" x="0px" y="0px"
	 viewBox="0 0 792 792" enable-background="new 0 0 792 792" xml:space="preserve">
<g>
	<path d="M682.3,285.6c-16.7,6.4-35.7,11.7-56,16c32.6,40.9,33.8,73.2,32.6,78.7c-2.9,14-13.6,35.4-18.9,42.4
		c-5.4,7.1-32.7,53.3-40.7,62c-7,7.7-15.9,13.5-21.4,1.4c-3.7-8.2-9.6-44-1.8-91.2c-0.9,0-5.6-1-9.7-1.6
		c-5.9,11.1-6.5,36.1-3.1,53.9c10.1,53.4-19.1,82.5-46,95.7c-9.3,4.6-15.9,7.4-22,9.4c-3,1-3.4,1.1-10.6,3.6
		c-1.3,0.4,4.2,4.2,5.3,3.3c4.1-3,3.6-3.8,7.1-4c7.8-0.4,12.6,9,14.7,21.7c1.8,11.4-4.3,19.6-8.9,23.5c-5.2,4.3-30.5,24-71.4,29.5
		c1.1,0.8,1.8,2.1,1.9,3.6c0.3,4.2,0.6,6.9,1.2,9.4c0.5,2.2,1.8,6,2.6,7.8c2.7,5.7,6.4,11.4,19,13.6c2.4,0.4,4.1,2.5,4.1,5
		c-0.3,15.8-7.2,32.7-8.6,36c-1.1,2.6-2.2,5-3.2,7c-1.9,3.9-4.4,8-7.8,12.9c-6.4,9.1-19.5,25.3-36.5,30.7c-0.7,0.2-1.5,0.3-2.4,0.3
		c0,0,0,0,0,0c-5.1,0-14.6-4.3-15.8-4.9c-16.5-8.6-38-25.8-47-59.2c-0.7-2.7-3.1-13.8-3.5-18.3c-0.2-2.2,1.1-4.3,3.2-5
		c14.5-5.4,21.5-15.9,22.4-34.1c0.1-2,1.4-3.7,3.2-4.4c0.1,0,0.2-0.1,0.3-0.1c-41.6-5.2-67.5-25.3-72.8-29.7
		c-4.6-3.9-6.7-9.4-6.7-15.4c0-3.8,1.3-30.1,12.7-30.4c2.5-0.1,4.1,2.2,8,4.8c1.3,0.8,5.1-3.3,5.1-3.3c-4.8-2.1-9.7-3.8-13.1-5
		c-5.4-1.9-11.5-4.2-19.6-8.1c-26.9-13.2-56.1-42.3-46-95.7c3.4-17.8,2.8-42.7-3.1-53.9c-4.1,0.6-8.8,1.6-9.7,1.6
		c7.8,47.3,1.8,83.1-1.8,91.2c-5.4,12.1-14.3,6.3-21.4-1.4c-7.9-8.7-35.3-54.8-40.7-62c-5.3-7.1-16.1-28.4-18.9-42.4
		c-1.1-5.5-0.3-37,32.3-78c-21.6-4.5-41.7-10-59.3-16.7c-9.5-3.7-3.7-18,0.9-27.1c1.9-3.7,5.5-4.6,8.6-4.6c2.7,0,5.1,0.7,5.5,0.7
		c5.6,0.6,41.7,8.3,63.3,8.3c1,0,2,0,3-0.1c0.2-11.5,1.3-21.2,3-26c1.8-5,8.5-5.5,12.3-5.5c0.9,0,1.6,0,2,0
		c1.2-22.6,34.2-148,165.5-162.9l0,0c0-0.5-0.1-1-0.1-1.5c-0.2-1.7-0.4-3.6-0.5-5.6l-0.3-3l0,0c-0.7-7.3-1.3-14.4-1.3-16
		c7-5.9,19.9-6.3,23.6-6.3h1.9c3.6,0,16.5,0.4,23.6,6.3c0,2.3-1.4,17-2.3,26.1C530.6,81.1,571,174.9,581.1,215.8l14.9-4.5
		c6.4-6.7,15.3-10.8,25.2-10.8c0,0,0,0,0,0c-0.3,0.1-0.6,0.2-0.9,0.4c3.1-0.9,6.3-1.4,9.7-1.4c19.3,0,34.9,15.6,34.9,34.9
		c0,8.3-2.9,16-7.8,22c4.9-0.9,8.6-1.5,10.1-1.7c0.4,0,2.8-0.7,5.5-0.7c3.1,0,6.7,0.9,8.6,4.6C686,267.6,691.8,281.9,682.3,285.6z"
		/>
	<path fill="#F1F70D" d="M586.9,241.9c1.2-0.8,1.7-1.6,1.8-2.2c-0.8,0.4-1.5,0.7-2,0.9c-0.5,0.2-0.9,0.4-1.3,0.4c-0.2,0-0.3,0-0.4,0
		c0,0-0.1,0-0.1,0c-0.1,0-0.2-0.1-0.3-0.1c-0.4-1-0.7-4.3-0.7-6.1c0.2,0,0.3,0,0.5,0c0,0,0.1,0,0.1,0v0c0.3,0,0.7,0,1.1,0
		c0.2,0,0.4,0,0.6,0c1.2,0,2.4,0.1,3.5,0.3c2.3,0.4,4.3,1.2,4.8,2.8c1.2,3.4,2.1,9.8,2.6,17.7c0.1,1.7,0.2,3.5,0.2,5.3
		c0,0.6,0,1.3,0,1.9l0,2.4c0,0,0,0.1,0,0.1c-20.1,12.3-59.3,14.2-83.2,14.2c-6.6,0-12.1-0.1-15.6-0.3c2.8-5.9,7.5-16.4,12.7-28.4
		c0,0,0,0,0,0c0.3-0.6,0.5-1.1,0.8-1.7C562.7,250.8,581.5,245.7,586.9,241.9z M293.3,279.2L293.3,279.2c-2.8-5.9-7.5-16.4-12.7-28.4
		c-0.3-0.6-0.5-1.1-0.8-1.7c-61.3,2-76-5.9-76.5-9.5c1.7,0.8,2.7,1.3,3.3,1.4c0.2,0,0.3,0,0.4,0c0,0,0.1,0,0.1,0
		c0.1,0,0.2-0.1,0.3-0.1c0.4-1,0.7-4.3,0.7-6.1c-0.2,0-0.3,0-0.5,0c0,0-0.1,0-0.1,0c-0.3,0-0.7,0-1.1,0c-3.6,0-8,0.5-8.9,3.1
		c-1.6,4.4-2.6,13.9-2.8,24.9l0,2.7l0,0c20.2,12.1,59.1,14,82.9,14C284.2,279.5,289.7,279.4,293.3,279.2z M411.1,696.4
		c-0.8,0.5-2.5,1.9-3.2,0.6c-0.4-0.7,0.8-2.4,1.2-3.1c1.8-2.9,2.8-7.5,3.3-11.3c0.5-4.3-2.1-10.7-2.3-11c0,0-0.9,2.7-0.9,2.8
		c-1.1,3.1-3.9,7.7-7.4,10.7c-1.2,1.1-2,0.1-2.1-0.3c-0.1-0.7,0.4-1.6,0.4-3.1c0-6.2-3.3-12.8-4.3-14.9c-0.9-1.9-3.8-7.4-3.8-7.4
		c-0.2,0.1-5.5,6.9-6.3,9.2c-2.2,6-2.4,12.6,1.5,18.9c0.5,0.7,1.6,1.9,0.8,2.7c-1.1,1.2-13.3-5.5-13.3-5.5c-0.7,10,5.1,21.3,9,25.5
		c2.1,2.3,8.7,7,11.8,8c1.2,0.4,1.2,0.6,2.5,0.1c2.4-0.8,4.7-1.8,6.8-3.1c4.8-2.8,8.7-6.9,11.4-11.7c1.7-3,3.1-6.1,3.7-9.5
		c0.1-0.7,0.4-2.1,0.3-2.9L411.1,696.4z"/>
	<path fill="#EB0000" d="M381.1,626.3c-42.9-1-73.6-19.5-85.8-29.7c-3.1-2.6-4.8-6.6-5-11.3c-0.5-20.5,7.2-26.6,8.2-25.6
		c9.5,9.2,48.6,30.1,84,36C380.3,598.3,378.4,622.5,381.1,626.3z M496.5,559.6c-9.5,9.2-48.6,30.1-84,36c2.2,2.7,4.1,26.9,1.4,30.7
		c42.9-1,73.6-19.5,85.8-29.7c3.1-2.6,7.3-9.9,7-14.6c-0.4-7.4-2.6-15.6-5.1-18.9C501,562.2,497.5,558.7,496.5,559.6z M440,676.1
		c-1.1,7.6-4.8,26.5-18.4,42.2c-1,1.1-11.1,12-21.9,17.7c-0.9,0.5-9.3-2.3-16.9-7.8c-3.5-2.5-5.9-4.5-8.9-7.6
		c-4.7-4.7-14.7-18.4-19.9-41.9c18.4-3.1,20-30.4,20-30.4s15.5-1.3,23.5-1.3c9.3,0,23.1,0.2,23.1,0.2S420,669.7,440,676.1z
		 M422.4,689.7c0-0.7-0.2-1.4-0.9-1.6c-0.7-0.2-1.3,0.3-1.8,0.6c-1.9,1.2-4.2,2.4-6.1,3.5c-0.4,0.2-1.2,0.6-1.4,0.8
		c-0.1,0.1-0.1,0.1-0.2,0.2c-0.1,0-0.1,0-0.2,0.1c0-0.2,0-0.2,0.2-0.4c1.5-3.1,2.5-6.7,2.5-10.7c0-3.8-0.2-5.1-1.6-8.3
		c-0.2-0.4-0.3-0.8-0.5-1.2c-0.3-0.7-1.6-4.4-1.9-4.7c-0.3-0.3-0.9-0.4-1.4-0.2c-0.5,0.3-0.7,1.6-1.1,2.3c-0.2,0.3-0.3,0.8-0.5,1.2
		c-0.8,1.9-1.6,3.6-2.7,5.4c-0.3,0.5-2.3,3.8-2.6,3.9c-0.1-0.8-0.1-1.4-0.2-2.2c-0.3-2.5-2.4-8.8-3.5-11c-0.3-0.5-0.5-1.1-0.8-1.6
		l-4.1-8c-0.2-0.5-0.5-1.2-1.1-1.3c-0.9-0.2-1.2,0.4-1.7,0.8c-0.4,0.3-0.8,0.8-1.2,1.2c-0.8,1-1.3,1.4-2.3,2.6
		c-3.1,3.9-5.3,8.5-5.7,13.7c-0.2,2.8,0.1,5.9,0.9,8.6c0.2,0.6,0.4,1.2,0.6,1.8c0.1,0.4,0.6,1.4,0.7,1.6l-3.2-1.6
		c-1.7-0.8-5-2.4-6.5-3.2c-0.3-0.2-0.5-0.3-1-0.2c-1.1,0.1-1,1.6-1,2.6c-0.1,7.5,1,13.8,4.2,20c2.8,5.3,6.6,9.1,11.4,12.6
		c1,0.7,2,1.3,3,1.9c2.4,1.3,2.8,1.3,5.1,2.1c0.8,0.3,1.4,0.1,2.1-0.1c3.3-1,7.1-2.8,9.8-4.7c3-2.1,5.2-4.2,7.4-7.1
		c2.7-3.5,4.8-7.6,6.2-11.9c0.3-1,0.5-2.1,0.7-3l0.3-2C422.5,691.4,422.5,690.5,422.4,689.7z M376.6,61.3
		C376.6,61.4,376.6,61.4,376.6,61.3c0.2,1.9,0.4,3.7,0.5,5.2c0,0.4,0.1,0.7,0.1,1.1l0,0.5l0.3,3.5l0,0l1.1,11.5
		c3.9-0.4,7.9-0.8,11.9-0.9c1.2-0.1,2.3-0.1,3.5-0.1c0.6,0,1.3-0.1,1.9-0.1c5.8,0.1,11.6,0.5,17.3,1.1l1.1-11.5l0,0l0.3-3.5l0-0.5
		c0.7-6.9,1.8-18.9,2.2-23.6c-5.1-3.3-13.4-4.5-19.9-4.5c-0.5,0-1.4,0-1.9,0c-6.5,0-14.9,1.2-19.9,4.5c0.2,2.8,0.7,8.3,1.2,13.8
		C376.4,59,376.5,60.2,376.6,61.3z M266.2,135.3c-10.3,12.8-38.7,48.5-43.1,108.7c19.1,2.4,42.9,2.1,55.1,1.6
		c-11-25.3-23.3-54.7-25.1-60c12-1,29.3-9.7,36.6-26.1c5.2-11.6,9.1-25.7,2.6-39.5c23.3-19.9,52.2-32.4,82.9-36.5l-1.1-11.5
		c-29.6,3.4-56.4,12.8-79.5,28c-19.1,12.5-35.7,29-49.5,49c-23.8,34.5-32.7,70.5-33.3,82.5l-0.2,3.3c0,0-0.2,4.5-0.4,7.1
		c2.5,0.6,5.3,1.1,8.1,1.5C223.3,170.8,266.2,135.3,266.2,135.3z M499.7,120c-6.5,13.8-2.6,27.9,2.6,39.5
		c7.3,16.3,24.7,25,36.6,26.1c-1.8,5.3-14.2,34.7-25.1,60c12.1,0.5,35.5,0.8,54.5-1.5c-4.9-42.2-17.8-78.5-28.1-91.3
		c0,0,26.2,25,31.9,90.8c3.1-0.5,6-1,8.8-1.6c-0.2-2.6-0.4-7.1-0.4-7.1h0l-0.2-3.3c-0.1-2.3-0.5-5.5-1.3-9.4
		c-0.3-1.6-0.7-3.4-1.2-5.3c-4.1-16.9-13.6-42.8-30.8-67.9c-13.8-20-30.4-36.5-49.5-49c-23.1-15.2-49.8-24.6-79.5-28l-1.1,11.5
		C447.4,87.6,476.3,100.1,499.7,120z M678.3,260c6,12,6.1,17.5,5.2,20c-0.4,1.1-1.2,1.8-2.4,2.3c-77.2,29.7-201.6,34.1-268.9,34.1
		c-5.3,0-10.7,0-16-0.1c0,0,0,0,0,0v0c-3.7,0-11.7,0-16.1,0c-37.4,0-92.5-1.4-147.3-7.7c-1.2-0.1-2.4-0.3-3.7-0.4
		c-2-0.2-4-0.5-6-0.7c-0.7-0.1-1.4-0.2-2.2-0.3c-6.1-0.8-12.2-1.6-18.2-2.6c-10.5-1.6-20.9-3.4-31.1-5.5
		c-21.9-4.4-42.5-10-60.6-16.9c-1.3-0.5-2-1.2-2.4-2.3c-1-2.5-0.8-7.9,5.2-20c0.6-1.2,1.8-2.7,5.4-2.7c1.7,0,3.3,0.4,4.2,0.5
		c0.4,0.1,0.8,0.2,0.9,0.2c1.2,0.1,4.3,0.7,8.3,1.4c13.5,2.4,38.6,6.9,55.4,6.9c0.4,0,0.9,0,1.3,0c0.5,0.3,1.5,1,1.5,1l1.6,1
		c19.9,12.1,57.2,14.7,85,14.7c7.9,0,14.1-0.2,17.5-0.3l0.2,0c0.4,0.7,0.7,1.2,0.9,1.4c2.5,2.7,68.7,2.9,92,2.9c4.2,0,7.1,0,7.8,0
		h0.6c0.8,0,3.6,0,7.8,0c23.3,0,89.5-0.2,92-2.9c0.2-0.2,0.5-0.7,0.9-1.4c3.4,0.1,9.5,0.3,17.3,0.3c27.8,0,65.2-2.6,85-14.7l1.6-1
		c0,0,1.2-0.7,1.7-1c0.5,0,0.9,0,1.4,0c0.3,0,0.7,0,1.1,0c4.8,2.5,10.3,4,16.1,4c2.9,0,5.8-0.4,8.5-1.1c0.1,0,0.2,0,0.3,0
		c0,0,0,0,0,0c8.8,0,16.8-3.3,23-8.7c2.3-0.4,4.5-0.8,6.4-1.1c3.9-0.7,7.1-1.3,8.3-1.4c0.2,0,0.5-0.1,0.9-0.2
		c0.9-0.2,2.5-0.5,4.2-0.5C676.5,257.3,677.7,258.9,678.3,260z M269.1,293.5c-44.7-6.5-101.4-12.3-138.4-24.5
		C139,284.3,260.3,300.5,269.1,293.5z M646.2,274.8c-42.3,11.2-186.3,24.7-277.6,22.7C439.4,315.1,640.7,286.9,646.2,274.8z
		 M295.7,162.2c4.4-9.9,9.6-24.6,4.5-40.2c21.4-17.1,47.5-28.1,75.7-32l1-0.1c0.8-0.1,1.6-0.2,2.4-0.3c3.7-0.4,7.4-0.7,11.6-0.9
		c0.3,0,0.5,0,0.8,0c0.3,0,0.6,0,0.7,0l7,0c34.1,1.1,66.8,13,92.3,33.4c-5.1,15.6,0.1,30.3,4.5,40.2v0c7.1,15.9,21.8,24.9,33.6,28.3
		c-8.5,21-32.4,76.5-38.2,88c-7.3,1-33.5,2-87.6,2h-16.3c-54.1,0-80.3-1-87.6-2c-0.2-0.3-0.4-0.7-0.6-1.1
		c-2.4-4.9-7.1-15.4-13.3-29.6c-9-20.7-19.4-45-24.3-57.3C273.9,187.1,288.6,178.1,295.7,162.2z M326.3,197.2
		c10.3,37.4,33.9,65.3,68.5,80.7l1.3,0.6l1.3-0.6c34.5-15.5,58.2-43.4,68.5-80.7c7.4-26.8,5.7-50.5,5-57.1l-0.2-2.2l-2.2-0.5
		c-4.5-1-11.5-2.8-13.8-3.6l-0.2-0.1c-0.1,0-0.2-0.1-0.2,0c0,0-0.1-0.2-0.1-0.5c-0.2-1.6-0.2-3.4-0.2-6.2c0-1.5,0-3.2,0-5.4l0-1.9
		l-1.8-0.8c-20.5-9.4-43-12.8-56-12.8c-13,0-35.4,3.3-56,12.8l-1.8,0.8l0,1.9c0,2.1,0,3.9,0,5.3c0,2.9,0,4.6-0.2,6.2
		c0,0.3-0.1,0.5-0.1,0.5c-0.1,0-0.2,0.1-0.2,0.1l-0.2,0.1c-2.3,0.8-9.2,2.6-13.8,3.6l-2.2,0.5l-0.2,2.2
		C320.5,146.7,318.9,170.4,326.3,197.2z M349.3,196.5c-2.8-9-6.1-23.4-5.8-41.3c9.8-2.4,15.3-8.8,15.6-18.2
		c18.7-7.2,36.2-7.5,36.9-7.5c0.8,0,18.3,0.4,37,7.5c0.3,9.4,5.7,15.8,15.6,18.2c0.3,17.9-2.9,32.3-5.8,41.3
		c-8.1,25.9-23.8,45-46.7,56.7C373.1,241.4,357.4,222.4,349.3,196.5z M375.2,199.7c0,0-8.8,15.2,1.5,29.5
		c7.5,10.4,19.8,3.7,21.8,2.9c3.9-1.5,9.7-3.9,17.1-3.2c5.4,0.4,10.8-1.8,15.1-8.2c0.2-0.3,0.4-0.7,0.6-1.1
		c2.3-4.9,4.4-12.6-2.5-23.2c-0.8-1.3-4.4-5.5-4.4-5.5s4.6-1.4,5.8-2.2c11.4-7.3,20-22.8,9.3-34c-11.2-11.8-27.8,3.3-27.8,3.3
		s-2.3-24.3-20.2-22.1c-6.2,0.8-17.1,4.1-17.9,19.5c-0.1,2-0.1,7.3-0.1,7.3s-5.2-1.4-6.9-1.7c-16-1.9-20.4,11.3-20.8,15.1
		c-0.3,3,0,19.3,22.7,22.8C370.2,199.1,375.2,199.7,375.2,199.7z"/>
	<path fill="#9EA1A0" d="M389.5,626.3c-3.5-1.1-4.1-4.6-4.1-7.9c-0.1-5.7,0.3-11.4,0.7-17.1c0.2-3.1,0.9-3.6,3.5-3.6
		c2,0,15.4,0,15.7,0c2.6,0,3.3,0.5,3.5,3.6c0.4,5.7,0.8,11.4,0.7,17.1c0,3.3-0.6,6.8-4.1,7.9C403.6,627,391.4,627,389.5,626.3z
		 M455.5,669.1c-2.1,18.4-7.9,33.2-8.2,34.2c-6.8,22.2-27.9,42.4-44.4,47.7c-2.5,0.8-12.1-3.1-14.4-4.2
		c-14.7-7.6-35.8-23.9-44.5-56.1c-0.8-2.8-3-13.5-3.4-17.4c15.5-5.7,24.5-17.5,25.6-38.5c5.5-2,50.2-3.9,62.4-1
		c0.3,4.9,0.8,7.7,1.4,10.3c0.5,2.2,1.9,6.5,2.9,8.7C436.3,659.8,441.2,666.6,455.5,669.1z M444.9,672.3
		c-16-1.8-19.9-22.4-20.7-25.7c-0.4-1.7-0.1-2.3-1.9-2.4c-10.2-0.5-33.2-0.6-51.5,0.8c-1.6,0.1-1.1,1.5-1.2,3
		c-0.5,6.2-2.3,18-18.8,27.5c-2.1,1.2-1.9,0.5-0.8,5.9c0.5,2.2,1.1,4.6,1.7,6.7c2.4,8.5,6.3,21.5,20.5,37.2c5.5,6.1,20,15.5,27,16.8
		c1.7,0.3,1.9,0.2,3.1-0.5c4.6-2.7,34-17.4,40.7-55.7c0.7-3.7,1.6-6.7,2.2-10.5C445.5,674.2,446.1,672.5,444.9,672.3z M595.2,233.3
		c0.1-4,0.9-7.9,2.3-11.5c0.4-1,0.8-2,1.3-2.9c2.4-4.9,6-9.2,10.4-12.5c-3.2,1.3-6.1,3.2-8.6,5.4c-1.1,1-2.1,2-3,3.1
		c-1.1,1.3-2.1,2.7-3,4.1c-0.9,1.4-1.6,2.9-2.2,4.4c-1,2.5-1.7,5.2-2.1,8.1C591.9,231.8,593.7,232.4,595.2,233.3z M585.7,231.3
		c0.3,0,0.5,0,0.8,0c0.3-2.2,0.7-4.3,1.3-6.4c0.5-1.5,1-2.9,1.7-4.3c0.7-1.6,1.6-3.1,2.5-4.5l-10.2,3.1c1.2,5.2,1.7,9.4,1.9,12.1
		C584.2,231.3,584.9,231.3,585.7,231.3z M619.1,204.9c3.1-1.2,6.4-1.8,9.8-2c0.4,0,0.8-0.1,1.2-0.1c17.3,0,31.4,14.1,31.4,31.4
		c0,9.1-3.9,17.3-10.1,23c-2,1.8-4.2,3.4-6.6,4.7c-1.8,1-3.7,1.8-5.6,2.4c-2.9,0.9-6,1.4-9.2,1.4c-0.2,0-0.4,0-0.6,0
		c-2,0-4-0.3-5.9-0.7c-2.7-0.6-5.3-1.5-7.7-2.8c-10.2-5.2-17.2-15.8-17.2-28C598.7,220.9,607.2,209.4,619.1,204.9z M604.4,234.3
		c0,14.2,11.5,25.7,25.7,25.7s25.7-11.5,25.7-25.7c0-14.2-11.5-25.7-25.7-25.7S604.4,220.1,604.4,234.3z M630.1,256.4
		c12.2,0,22.2-9.9,22.2-22.2c0-12.2-9.9-22.2-22.2-22.2c-12.2,0-22.2,9.9-22.2,22.2C607.9,246.5,617.9,256.4,630.1,256.4z
		 M609.7,262.7c-3.6-2.6-6.7-5.8-9.1-9.6c0.1,2,0.2,4.1,0.3,6.2c1.6,1.3,3.2,2.5,5,3.5c2.5,1.4,5.2,2.5,8.1,3.1
		c0.7,0.2,1.4,0.3,2.2,0.4c-0.4-0.2-0.8-0.3-1.1-0.5C613.2,264.9,611.4,263.9,609.7,262.7z M334.1,195c-6-21.8-5.7-41.4-5.1-50.5
		c4.1-1,8.9-2.2,11-3c4.5-1.4,5.7-5.1,6-7.2c0.3-2.2,0.3-4.2,0.3-7.3c0-0.6,0-1.3,0-2c17.4-7.4,37.2-10.7,49.6-10.7
		c12.4,0,32.2,3.3,49.6,10.7c0,0.7,0,1.4,0,2c0,3.1,0,5.2,0.3,7.3c0.3,2.1,1.4,5.8,6,7.2c2.2,0.8,6.9,2,11,3
		c0.6,9.1,0.9,28.7-5.1,50.5c-9.5,34.7-30.3,59.7-61.9,74.5C364.5,254.7,343.7,229.7,334.1,195z M396,258.7
		c63.1-30.4,57.4-103.3,57.4-107.8c-18.2-2.2-15.2-15.7-15.3-17.3c-21.2-9-42-9.2-42-9.2s-20.8,0.2-42,9.2
		c-0.1,1.6,2.9,15.1-15.3,17.3C338.6,155.4,332.9,228.4,396,258.7z M386.1,189.7c-6.9,7.4-9.2,16.1-9.9,22.5
		c-0.4,2,0.2,24.4,21.9,15c8.3-3.8,11.5-3.5,16.5-3.4c16.8,0.3,14.4-16,12.3-20.6c-0.6-1.4-2.2-6.4-7.5-12.2
		C401.9,172,389.1,186.3,386.1,189.7z M396.1,177.7c6.9-1.2,11.7-10.5,10-20.7c-1.6-10.2-9.1-17.5-16-16.3
		c-6.9,1.2-12.7,10.4-11,20.6C380.8,171.5,389.2,178.9,396.1,177.7z M380.6,189.1c3.2-5.7-0.2-15.2-8-20c-7.8-4.8-17.2-2.9-20.4,2.7
		c-3.2,5.7-0.2,14.8,7.7,19.6C367.8,196.3,377.4,194.8,380.6,189.1z M434.2,178.6c6-6.7,6.7-16.6,2.1-20.9
		c-4.5-4.3-13.5-2.9-19.5,3.9c-6,6.7-6.6,16.2-2.1,20.5C419.3,186.4,428.2,185.3,434.2,178.6z"/>
	<path fill="#FFFFFF" d="M310,388.7c-4.1,0-7.5-3.4-7.5-7.5s3.4-7.5,7.5-7.5c4.1,0,7.5,3.4,7.5,7.5S314.2,388.7,310,388.7z
		 M566.1,376.1c-0.4,1.6-1,3.8-1.8,6.7c-2.8,9.5-7.4,25.3-7.4,41.5c-3.5-1-9.8-0.2-13.9,3.9c-4.1,4.1-7.3,12.7,0.6,29.9
		c-10.4,11.5-5.6,19.2-3,22.1c4.5,4.9,12.2,6.6,17.1,4.1c-6.9,34.4-40.7,56.2-67.7,64.4c-12.2,3.7-19.2,6.2-39.7,16.3
		c-1,0.5-2.2,1.1-3.7,1.9c-10.6,5.4-32.5,16.6-48.6,16.6c-16.1,0-38.1-11.2-48.6-16.6c-1.4-0.7-2.7-1.4-3.7-1.9
		c-20.5-10-27.5-12.6-39.7-16.3c-8.4-2.6-37-12.7-55-36.6c4.4-3.2,5.1-7.7,2.3-13.4c-1.8-3.5-3.7-5.2-5.8-5.1
		c-2.4,0.1-4.1,2.4-5,4.1c-1.9-4.3-3.3-8.8-4.2-13.4c4.9,2.5,12.6,0.8,17.1-4.1c2.6-2.8,7.4-10.6-3-22.1c7.8-17.2,4.6-25.7,0.6-29.9
		c-4.1-4.2-10.4-4.9-13.9-3.9c0-16.2-4.6-32-7.4-41.5c-0.8-2.8-1.5-5.1-1.8-6.7c-6.1-27.7-1.2-51.4,2.5-63.4
		c55.3,6.4,111,7.7,148,7.7h1.8c4.9,0,9.8,0,16.1,0l0.4,0c4.5,0,9.1,0.1,13.9,0.1c38.1,0,95.2-1.4,151.4-8.1
		C567.2,324.5,572.2,348.5,566.1,376.1z M309.1,457.6c28.3-41.7,83.7-40.5,88.7-40.6c5,0,60.4-1.2,88.7,40.6
		c-22.3-46.5-88.7-44.9-88.7-44.9S331.4,411.1,309.1,457.6z M464.9,486.1c0,1.3,1,2.3,2.3,2.3c1.3,0,2.3-1,2.3-2.3
		c0-1.3-1-2.3-2.3-2.3C465.9,483.8,464.9,484.8,464.9,486.1z M465.9,464.7c1.3,0,2.3-1,2.3-2.3s-1-2.3-2.3-2.3c-1.3,0-2.3,1-2.3,2.3
		S464.6,464.7,465.9,464.7z M344.7,478.5c0,1.3,1,2.3,2.3,2.3c1.3,0,2.3-1,2.3-2.3c0-1.3-1-2.3-2.3-2.3
		C345.7,476.2,344.7,477.2,344.7,478.5z M330.9,462.4c0-1.3-1-2.3-2.3-2.3c-1.3,0-2.3,1-2.3,2.3s1,2.3,2.3,2.3
		C329.9,464.7,330.9,463.6,330.9,462.4z M327.3,483.8c-1.3,0-2.3,1-2.3,2.3c0,1.3,1,2.3,2.3,2.3c1.3,0,2.3-1,2.3-2.3
		C329.6,484.8,328.6,483.8,327.3,483.8z M285.2,423.3c7.4,2,14.9,2.8,21.9,2.9c0.7,0,1.5,0,2.2,0c18.6,0,34.1-4.7,39.4-6.7
		c0.9-0.3,1.6-0.6,1.9-0.7c3.8-1.9,9.6-4.1,12.4-11.9c4-11.2,3.3-16.6,3-26.7c-0.6-22.5-13.3-37.8-15.9-40.4
		c-1.9-1.9-9.4-11.1-24.8-14.3c-3.4-0.7-7.1-1.1-11.2-1.1c-3.7,0-7.5,0.4-11.3,1.1c-14.1,2.8-27.8,10.9-35.7,25.1
		c-3.7,6.6-13.8,26.7,1.2,59.3C271.9,417.6,276.7,421.1,285.2,423.3z M495.8,482c-1.5-1.1-2.2-0.7-2.5-0.4c-0.6,0.6-0.3,1.8,0.3,2.5
		c1.2,1.5,2.3,2.9,3.3,4.4c-8.7-0.1-16.8,4.6-21.7,12.6c-7.7,12.6-12,16.1-14.3,18l-0.4,0.3c-15.1,12.6-52,13.3-60.9,13.3
		c0.4-6.6,2-32.2,1.6-43.4c17.1-4,48.4-34.2,48.1-50.2c-0.4-19.1-49.4-19.9-51.4-19.9c-2.1,0-51.1,0.8-51.4,19.9
		c-0.3,16,31,46.2,48.1,50.2c-0.4,11.2,1.1,36.8,1.6,43.4c-8.9,0-45.8-0.7-60.9-13.3l-0.4-0.3c-2.3-1.9-6.6-5.5-14.3-18
		c-4.9-8.1-13-12.8-21.7-12.6c0.9-1.5,2-3,3.3-4.4c0.6-0.7,0.9-1.9,0.3-2.5c-0.3-0.3-1-0.7-2.5,0.4c-6.4,4.8-9.3,11.1-7.9,17.6
		c0.2,1,0.9,1.6,1.6,1.6c0.6,0,1.2-0.5,1.3-1.6l0-0.3c0.1-1.2,0.3-3.6,1.9-7.1c10-2.1,17.8,7.2,20,11c7.5,13,15.4,21.6,23.5,25.4
		l0.3,0.1c19.9,9.5,44.2,9.5,57.2,9.5s37.3,0,57.2-9.5l0.3-0.1c8.1-3.8,16-12.3,23.5-25.4c2.2-3.8,10-13.1,20-11
		c1.7,3.5,1.9,6,1.9,7.1l0,0.3c0.1,1.2,0.8,1.6,1.3,1.6c0.8,0,1.4-0.6,1.6-1.6C505,493.1,502.2,486.9,495.8,482z M447.5,476.2
		c-1.3,0-2.3,1-2.3,2.3c0,1.3,1,2.3,2.3,2.3c1.3,0,2.3-1,2.3-2.3C449.8,477.2,448.8,476.2,447.5,476.2z M528.5,350.6
		c-7.9-14.1-21.6-22.2-35.7-25.1c-3.8-0.7-7.5-1.1-11.3-1.1c-4.1,0-7.9,0.4-11.2,1.1c-15.4,3.2-23,12.5-24.8,14.3
		c-2.6,2.6-15.3,17.9-15.9,40.4c-0.3,10.1-1,15.5,3,26.7c2.8,7.8,8.6,10,12.4,11.9c0.3,0.1,0.9,0.4,1.9,0.7
		c5.3,1.9,20.8,6.7,39.4,6.7c0.7,0,1.5,0,2.2,0c7.1-0.1,14.5-1,21.9-2.9c8.5-2.2,13.3-5.8,16.9-13.5
		C542.3,377.3,532.2,357.1,528.5,350.6z M493.7,335.8c-3.9-0.9-7.7-1.3-11.4-1.3c-16.6,0-29.6,8.3-33.7,12.7
		c-3.6,3.9-11.5,12.3-15.1,31.5c-0.3,1.6-0.4,3.2-0.5,4.9c0,0,0,0,0,0c-0.3,8.1-0.4,13,2.9,22.3c0.2,0.6,0.5,1.2,0.8,1.8
		c0.1,0.1,0.1,0.3,0.2,0.4c0.2,0.5,0.5,0.9,0.8,1.3c0.1,0.1,0.1,0.2,0.2,0.2c0.1,0.1,0.1,0.1,0.2,0.2c-2.1-4.7-3.2-9.9-3.2-15.1
		c0-20.6,16.8-37.4,37.4-37.4c20.6,0,37.4,16.8,37.4,37.4c0,10.5-4.3,20.3-12,27.4c1.1-0.1,2.1-0.3,3.1-0.4c0.7-0.1,1.4-0.2,2.1-0.3
		c0.7-0.1,1.4-0.3,2.1-0.4c1.6-0.3,3.1-0.6,4.6-1c7.8-2,11.6-5.1,14.6-11.6c1.4-2.9,2.7-6.2,3.8-9.6c0.9-2.6,1.4-5.4,1.6-8.2
		c1-15-2.9-25.2-4-27.8C518.7,345.5,506.1,338.8,493.7,335.8z M649.3,349c-1.4-4.8-8.4-18.7-10.3-23.2c-2.5,0.7-5.6-1.3-7.4-4
		c-0.8,3-9.3,9.8-22.9,7.2c-8.5-1.6-14.7-7.4-15.6-21.2c0.5-0.1,0.9-0.2,1.4-0.2c-9.6,1.5-19.5,2.9-29.4,4.1c1-0.1,2-0.2,3-0.3
		c4.4,10,11.1,34.5-1.5,78.2c3.7,0.8,5.7,1,10,1.7c6.9-39.4,1.2-67.8-3-80.6c0.8-0.1,1.6-0.2,2.4-0.3c12.5,31.6,5.6,74.5,5.1,78.7
		c-0.6,4.5-9.4,72.1,1.6,95.8c2.2,4.8,4.1,3.6,6.7,1.9c7.7-5.2,22.3-28.4,23.5-30.4c-0.9-1.8-1.7-5-1.7-8
		c-7.2,1.9-13.9,0.1-13.6-16.5c0.1-5.7,1.4-12.3,6.8-19.3c-1.5-2.3-5.4-16.9,3-27.6c3.2-4.1,20.4-9,16.4,12.3
		c8.9-0.7,14.8,6.2,12.6,22.7c1.3-1.9,9.1-16.2,10.5-19.2c-0.6-2.1-7.8-13.2,0.5-24.1C642.8,373.2,637.6,352.4,649.3,349z
		 M286.1,394.7c0-20.6,16.8-37.4,37.4-37.4c20.6,0,37.4,16.8,37.4,37.4c0,5.2-1.1,10.3-3.2,15.1c0.1-0.1,0.1-0.1,0.2-0.2
		c0.1-0.1,0.1-0.2,0.2-0.2c0.3-0.4,0.5-0.8,0.8-1.3c0.1-0.1,0.2-0.3,0.2-0.4c0.3-0.6,0.5-1.1,0.8-1.8c3.3-9.3,3.2-14.2,2.9-22.3
		c0,0,0,0,0,0c-0.1-1.6-0.2-3.3-0.5-4.9c-3.6-19.2-11.5-27.5-15.1-31.5c-4.1-4.4-17.1-12.7-33.7-12.7c-3.6,0-7.5,0.4-11.4,1.3
		c-12.4,3-25,9.7-31.9,27c-1.1,2.7-5,12.8-4,27.8c0.2,2.8,0.7,5.5,1.6,8.2c1.1,3.4,2.5,6.7,3.8,9.6c3,6.5,6.8,9.5,14.6,11.6
		c1.5,0.4,3,0.7,4.6,1c0.7,0.1,1.4,0.3,2.1,0.4c0.7,0.1,1.4,0.2,2.1,0.3c1,0.2,2.1,0.3,3.1,0.4C290.4,415,286.1,405.2,286.1,394.7z
		 M458.7,373.7c-4.1,0-7.5,3.4-7.5,7.5c0,4.1,3.4,7.5,7.5,7.5c4.1,0,7.5-3.4,7.5-7.5C466.2,377.1,462.8,373.7,458.7,373.7z
		 M227.3,311.6c-1.9-0.2-3.7-0.5-5.5-0.7c-4.1,12.8-9.7,40.7-2.8,80.2c4.3-0.7,6.3-0.9,10-1.7C216.4,345.7,223,321.7,227.3,311.6z
		 M214.5,389c0.6,4.5,9.4,72.1-1.6,95.8c-2.2,4.8-4.1,3.6-6.7,1.9c-7.7-5.2-22.3-28.4-23.5-30.4c0.9-1.8,1.7-5,1.7-8
		c7.2,1.9,13.9,0.1,13.6-16.5c-0.1-5.7-1.4-12.3-6.8-19.3c1.5-2.3,5.4-16.9-3-27.6c-3.2-4.1-20.4-9-16.4,12.3
		c-8.9-0.7-14.8,6.2-12.6,22.7c-1.3-1.9-9.1-16.2-10.5-19.2c0.6-2.1,7.8-13.2-0.5-24.1c4.6-3.4,9.7-24.2-1.9-27.6
		c1.4-4.8,8.4-18.7,10.3-23.2c2.5,0.7,5.6-1.3,7.4-4c0.8,3,9.3,9.8,22.9,7.2c8.5-1.6,14.6-6.9,15.6-20.7c5.6,0.8,11.2,1.6,16.9,2.4
		C206.9,342.3,213.9,384.7,214.5,389z M172.4,352.5c3.9-13.1-6.9-15.3-11.8-10.2c-4.1,4.2-5.1,13.7,1.4,18.3
		c-5.2,6.8-3.8,14.8-1.3,16.4c3,2,9,2.1,9.6-8.7c4.3,0.7,8.2-1.8,10.1-5.1C185.5,354,177.4,350.7,172.4,352.5z M478.1,558.6
		c0,0-12.5,5.5-34.7,16.7c-12.7,6.4-25.7,12.9-43.6,13.4c-0.8,0-1.7,0.1-2.5,0.1c-7.1,0-13.6-1.1-19.6-2.9c-10.4-3-19.5-7.9-28-11.9
		c-14.8-7-27.3-12.7-31.6-14.7c-1-0.5-1.6-0.7-1.6-0.7l-4,6.3c0,0,15.4,9.6,32.6,16.6c15.8,6.5,32.9,12,52.5,12.5
		c18.7,0.5,40.2-7.8,51.9-12.5c17.2-7,33-15.9,33-15.9L478.1,558.6z"/>
	<path fill="#6DD0F7" d="M472.1,361c-18.6,0-33.7,15.1-33.7,33.7c0,6.1,1.7,12,4.8,17.3c0.4,0.3,0.9,0.5,1.3,0.7
		c0.6,0.3,1.2,0.6,1.7,0.8l1.1,0.5c0.1,0,16.9,6.9,38.9,6.9c1.4,0,2.8,0,4.5-0.1c1-0.1,1.9-0.1,2.9-0.2c7.7-6.4,12.2-15.8,12.2-25.9
		C505.8,376.2,490.7,361,472.1,361z M472.1,418.4c-13.1,0-23.7-10.6-23.7-23.7c0-2.7,0.5-5.4,1.4-8c-1-1.7-1.6-3.6-1.6-5.6
		c0-5.9,4.8-10.6,10.6-10.6c2,0,4,0.6,5.7,1.7c2.4-0.8,5-1.2,7.5-1.2c13.1,0,23.7,10.6,23.7,23.7S485.2,418.4,472.1,418.4z
		 M348.3,414l0.9-0.4c0.6-0.3,1.2-0.6,1.8-0.9c0.4-0.2,0.9-0.5,1.3-0.7c3.1-5.2,4.8-11.2,4.8-17.3c0-18.6-15.1-33.7-33.7-33.7
		c-18.6,0-33.7,15.1-33.7,33.7c0,10.1,4.4,19.5,12.2,25.9c1,0.1,1.9,0.1,2.9,0.2c1.7,0.1,3.2,0.1,4.5,0.1
		C331.4,420.9,348.2,414.1,348.3,414z M299.8,394.7c0-2.8,0.5-5.5,1.4-8c-1-1.7-1.5-3.5-1.5-5.5c0-5.9,4.8-10.6,10.6-10.6
		c2,0,4,0.6,5.7,1.7c2.4-0.8,4.9-1.2,7.5-1.2c13.1,0,23.7,10.6,23.7,23.7s-10.6,23.7-23.7,23.7C310.4,418.4,299.8,407.8,299.8,394.7
		z"/>
</g>
</svg>
